HIERARCHY
ROOT hip
{
  OFFSET 0 0 0
  CHANNELS 6 Xposition Yposition Zposition Zrotation Yrotation Xrotation
  JOINT abdomen
  {
    OFFSET 0 20.6881 -0.73152
    CHANNELS 3 Zrotation Xrotation Yrotation
    JOINT chest
    {
      OFFSET 0 11.7043 -0.48768
      CHANNELS 3 Zrotation Xrotation Yrotation
      JOINT neck
      {
        OFFSET 0 22.1894 -2.19456
        CHANNELS 3 Zrotation Xrotation Yrotation
        JOINT head
        {
          OFFSET -0.24384 7.07133 1.2192
          CHANNELS 3 Zrotation Xrotation Yrotation
          JOINT leftEye
          {
            OFFSET 4.14528 8.04674 8.04672
            CHANNELS 3 Zrotation Xrotation Yrotation
            End Site
            {
              OFFSET 1 0 0
            }
          }
          JOINT rightEye
          {
            OFFSET -3.6576 8.04674 8.04672
            CHANNELS 3 Zrotation Xrotation Yrotation
            End Site
            {
              OFFSET 1 0 0
            }
          }
        }
      }
      JOINT rCollar
      {
        OFFSET -2.68224 19.2634 -4.8768
        CHANNELS 3 Zrotation Xrotation Yrotation
        JOINT rShldr
        {
          OFFSET -8.77824 -1.95073 1.46304
          CHANNELS 3 Zrotation Xrotation Yrotation
          JOINT rForeArm
          {
            OFFSET -28.1742 -1.7115 0.48768
            CHANNELS 3 Zrotation Xrotation Yrotation
            JOINT rHand
            {
              OFFSET -22.5879 0.773209 7.07136
              CHANNELS 3 Zrotation Xrotation Yrotation
              JOINT rThumb1
              {
                OFFSET -1.2192 -0.487915 3.41376
                CHANNELS 3 Zrotation Xrotation Yrotation
                JOINT rThumb2
                {
                  OFFSET -3.37035 -0.52449 3.41376
                  CHANNELS 3 Zrotation Xrotation Yrotation
                  End Site
                  {
                    OFFSET -1.78271 -1.18214 1.43049
                  }
                }
              }
              JOINT rIndex1
              {
                OFFSET -7.75947 0.938293 5.60832
                CHANNELS 3 Zrotation Xrotation Yrotation
                JOINT rIndex2
                {
                  OFFSET -2.54057 -0.884171 1.56538
                  CHANNELS 3 Zrotation Xrotation Yrotation
                  End Site
                  {
                    OFFSET -1.62519 -0.234802 1.16502
                  }
                }
              }
              JOINT rMid1
              {
                OFFSET -8.24714 1.18213 3.41376
                CHANNELS 3 Zrotation Xrotation Yrotation
                JOINT rMid2
                {
                  OFFSET -3.10165 -0.590103 1.0647
                  CHANNELS 3 Zrotation Xrotation Yrotation
                  End Site
                  {
                    OFFSET -2.48547 -0.328903 0.83742
                  }
                }
              }
              JOINT rRing1
              {
                OFFSET -8.82822 0.546677 1.51678
                CHANNELS 3 Zrotation Xrotation Yrotation
                JOINT rRing2
                {
                  OFFSET -2.60934 -0.819778 -0.0198488
                  CHANNELS 3 Zrotation Xrotation Yrotation
                  End Site
                  {
                    OFFSET -2.33842 -0.294052 0.168128
                  }
                }
              }
              JOINT rPinky1
              {
                OFFSET -8.27202 -0.0477905 -0.4584
                CHANNELS 3 Zrotation Xrotation Yrotation
                JOINT rPinky2
                {
                  OFFSET -1.82734 -0.647385 -0.700984
                  CHANNELS 3 Zrotation Xrotation Yrotation
                  End Site
                  {
                    OFFSET -1.69225 -0.51767 -0.607171
                  }
                }
              }
            }
          }
        }
      }
      JOINT lCollar
      {
        OFFSET 2.68224 19.2634 -4.8768
        CHANNELS 3 Zrotation Xrotation Yrotation
        JOINT lShldr
        {
          OFFSET 8.77824 -1.95073 1.46304
          CHANNELS 3 Zrotation Xrotation Yrotation
          JOINT lForeArm
          {
            OFFSET 28.1742 -1.7115 0.48768
            CHANNELS 3 Zrotation Xrotation Yrotation
            JOINT lHand
            {
              OFFSET 22.5879 0.773209 7.07136
              CHANNELS 3 Zrotation Xrotation Yrotation
              JOINT lThumb1
              {
                OFFSET 1.2192 -0.487915 3.41376
                CHANNELS 3 Zrotation Xrotation Yrotation
                JOINT lThumb2
                {
                  OFFSET 3.37035 -0.52449 3.41376
                  CHANNELS 3 Zrotation Xrotation Yrotation
                  End Site
                  {
                    OFFSET 1.78271 -1.18214 1.43049
                  }
                }
              }
              JOINT lIndex1
              {
                OFFSET 7.75947 0.938293 5.60832
                CHANNELS 3 Zrotation Xrotation Yrotation
                JOINT lIndex2
                {
                  OFFSET 2.54057 -0.884171 1.56538
                  CHANNELS 3 Zrotation Xrotation Yrotation
                  End Site
                  {
                    OFFSET 1.62519 -0.234802 1.16502
                  }
                }
              }
              JOINT lMid1
              {
                OFFSET 8.24714 1.18213 3.41376
                CHANNELS 3 Zrotation Xrotation Yrotation
                JOINT lMid2
                {
                  OFFSET 3.10165 -0.590103 1.0647
                  CHANNELS 3 Zrotation Xrotation Yrotation
                  End Site
                  {
                    OFFSET 2.48547 -0.328903 0.83742
                  }
                }
              }
              JOINT lRing1
              {
                OFFSET 8.82822 0.546677 1.51678
                CHANNELS 3 Zrotation Xrotation Yrotation
                JOINT lRing2
                {
                  OFFSET 2.60934 -0.819778 -0.0198488
                  CHANNELS 3 Zrotation Xrotation Yrotation
                  End Site
                  {
                    OFFSET 2.33842 -0.294052 0.168128
                  }
                }
              }
              JOINT lPinky1
              {
                OFFSET 8.27202 -0.0477905 -0.4584
                CHANNELS 3 Zrotation Xrotation Yrotation
                JOINT lPinky2
                {
                  OFFSET 1.82734 -0.647385 -0.700984
                  CHANNELS 3 Zrotation Xrotation Yrotation
                  End Site
                  {
                    OFFSET 1.69225 -0.51767 -0.607171
                  }
                }
              }
            }
          }
        }
      }
    }
  }
  JOINT rButtock
  {
    OFFSET -8.77824 4.35084 1.2192
    CHANNELS 3 Zrotation Xrotation Yrotation
    JOINT rThigh
    {
      OFFSET 0 -1.70687 -2.19456
      CHANNELS 3 Zrotation Xrotation Yrotation
      JOINT rShin
      {
        OFFSET 0 -36.8199 0.73152
        CHANNELS 3 Zrotation Xrotation Yrotation
        JOINT rFoot
        {
          OFFSET 0.73152 -45.1104 -5.12064
          CHANNELS 3 Zrotation Xrotation Yrotation
          End Site
          {
            OFFSET -1.1221 -3.69964 12.103
          }
        }
      }
    }
  }
  JOINT lButtock
  {
    OFFSET 8.77824 4.35084 1.2192
    CHANNELS 3 Zrotation Xrotation Yrotation
    JOINT lThigh
    {
      OFFSET 0 -1.70687 -2.19456
      CHANNELS 3 Zrotation Xrotation Yrotation
      JOINT lShin
      {
        OFFSET 0 -36.8199 0.73152
        CHANNELS 3 Zrotation Xrotation Yrotation
        JOINT lFoot
        {
          OFFSET -0.73152 -45.1104 -5.12064
          CHANNELS 3 Zrotation Xrotation Yrotation
          End Site
          {
            OFFSET 1.1221 -3.69964 12.103
          }
        }
      }
    }
  }
}
MOTION
Frames:	4
Frame Time:	0.00833333
145.014 65.8044 5.10712 182.377 -45.9579 -170.095 4.01706 41.5406 4.30366 -3.91306 -1.96252 0.0911577 -9.37056 3.24145 8.60618 19.2458 -60.1729 29.264 -0.0 0.0 0.0 -0.0 0.0 0.0 8.11927e-13 9.21309e-13 -1.06266e-12 53.2512 25.011 48.5653 -20.0144 -13.0112 38.8291 -0.112807 -9.55834 -1.35598 1.18387e-09 -5.81099e-09 2.97774e-09 2.01598e-09 -1.00789e-08 5.17722e-09 1.18388e-09 -5.81099e-09 2.97773e-09 7.73091 5.47488 0.417314 1.18387e-09 -5.81099e-09 2.97774e-09 2.90554 0.965183 0.102902 1.18388e-09 -5.81099e-09 2.97774e-09 10.2786 0.731801 0.0259123 1.18387e-09 -5.81099e-09 2.97774e-09 2.22167 -0.733487 -0.20892 8.11718e-13 9.21249e-13 -1.06284e-12 -81.4441 27.2803 -3.44083 20.1373 -13.171 -39.0714 0.939391 -26.4104 4.00226 -4.10145e-09 7.1507e-11 -2.51848e-09 -6.99209e-09 5.90523e-11 -4.44882e-09 -4.10145e-09 7.15131e-11 -2.51847e-09 -7.73091 5.47488 -0.417314 -4.10145e-09 7.15154e-11 -2.51848e-09 -2.90554 0.965183 -0.102902 -4.10145e-09 7.1516e-11 -2.51847e-09 -10.2786 0.731801 -0.0259123 -4.10145e-09 7.15173e-11 -2.51848e-09 -2.22167 -0.733487 0.20892 -2.03217e-16 0.0 -3.88251e-19 -36.4796 -28.4842 -31.1105 -1.02603 60.372 1.76864 -9.15832 -23.651 -16.1622 2.03217e-16 0.0 3.88251e-19 65.0267 -54.1675 78.3089 146.292 87.9963 -146.58 4.2103 -9.81052 10.7532
143.918 65.3586 5.07374 182.684 -45.8672 -170.233 3.51216 41.7771 4.71801 -4.00268 -1.91634 0.128802 -9.45909 3.06931 8.52021 18.9523 -59.8636 28.9132 -0.0 0.0 0.0 -0.0 0.0 0.0 9.28847e-13 1.03054e-12 -1.20851e-12 52.1048 25.3013 50.5362 -20.959 -14.2678 41.0619 -0.13104 -10.2664 -1.45865 1.73584e-09 -7.52421e-09 3.93709e-09 2.96205e-09 -1.30487e-08 6.84254e-09 1.73585e-09 -7.5242e-09 3.93708e-09 7.73091 5.47488 0.417314 1.73584e-09 -7.52421e-09 3.93708e-09 2.90554 0.965183 0.102902 1.73584e-09 -7.52421e-09 3.93709e-09 10.2786 0.731801 0.0259123 1.73584e-09 -7.52421e-09 3.93709e-09 2.22167 -0.733487 -0.20892 9.28609e-13 1.03046e-12 -1.20871e-12 -80.2689 28.294 -2.87263 20.5899 -13.7722 -40.1318 0.907367 -25.9948 3.92959 -3.90655e-09 -1.9792e-10 -3.36638e-09 -6.63127e-09 -4.09096e-10 -5.91073e-09 -3.90654e-09 -1.97913e-10 -3.36638e-09 -7.73091 5.47488 -0.417314 -3.90654e-09 -1.97911e-10 -3.36638e-09 -2.90554 0.965183 -0.102902 -3.90655e-09 -1.9791e-10 -3.36638e-09 -10.2786 0.731801 -0.0259123 -3.90654e-09 -1.97909e-10 -3.36638e-09 -2.22167 -0.733487 0.20892 -2.03217e-16 0.0 -3.88251e-19 -36.834 -27.6024 -31.1539 -0.988945 59.8038 1.74181 -9.251 -23.5405 -16.317 2.03217e-16 0.0 3.88251e-19 67.7357 -54.3622 79.9089 136.6 88.3908 -136.861 4.19568 -9.8589 10.7784
142.669 65.278 5.00708 182.982 -45.7922 -170.415 2.98678 41.9095 5.25166 -4.06614 -1.85923 0.201784 -9.64627 3.04974 8.34534 18.8994 -59.5518 28.527 -0.0 0.0 0.0 -0.0 0.0 0.0 9.05168e-13 8.88465e-13 -1.12653e-12 51.0992 25.5986 51.9227 -21.992 -15.7873 43.5626 -0.149363 -10.9501 -1.55811 1.03971e-09 -7.47297e-09 4.16064e-09 1.75714e-09 -1.29549e-08 7.22211e-09 1.03972e-09 -7.47297e-09 4.16063e-09 7.73091 5.47488 0.417314 1.03971e-09 -7.47297e-09 4.16063e-09 2.90554 0.965183 0.102902 1.03971e-09 -7.47297e-09 4.16064e-09 10.2786 0.731801 0.0259123 1.03971e-09 -7.47297e-09 4.16065e-09 2.22167 -0.733487 -0.20892 9.04948e-13 8.8837e-13 -1.12675e-12 -79.183 29.4705 -2.0067 21.1801 -14.5938 -41.5425 0.91086 -26.0385 3.93729 -4.00147e-09 -7.15045e-11 -3.44322e-09 -6.79423e-09 -1.86785e-10 -6.04418e-09 -4.00147e-09 -7.14988e-11 -3.44321e-09 -7.73091 5.47488 -0.417314 -4.00147e-09 -7.1497e-11 -3.44322e-09 -2.90554 0.965183 -0.102902 -4.00147e-09 -7.14959e-11 -3.44321e-09 -10.2786 0.731801 -0.0259123 -4.00147e-09 -7.14948e-11 -3.44322e-09 -2.22167 -0.733487 0.20892 -2.03217e-16 0.0 -3.88251e-19 -36.9935 -26.4893 -31.0677 -0.938178 59.0052 1.70226 -9.25414 -23.4658 -16.2976 2.03217e-16 0.0 3.88251e-19 70.1501 -54.3741 81.2152 121.787 88.7073 -122.02 4.1784 -10.0054 10.7488
141.404 64.7955 4.87211 183.274 -45.8313 -170.615 2.43598 41.9414 5.89678 -4.11893 -1.79301 0.306748 -9.89737 3.13598 8.09073 18.9793 -59.1899 28.0511 -0.0 0.0 0.0 -0.0 0.0 0.0 7.90424e-13 5.84488e-13 -8.97786e-13 50.2603 25.9516 52.8366 -23.0196 -17.4262 46.3787 -0.16817 -11.621 -1.65611 -4.24333e-10 -6.35975e-09 3.95123e-09 -7.71337e-10 -1.10168e-08 6.84453e-09 -4.24328e-10 -6.35975e-09 3.95123e-09 7.73091 5.47488 0.417314 -4.24335e-10 -6.35975e-09 3.95123e-09 2.90554 0.965183 0.102902 -4.24328e-10 -6.35975e-09 3.95124e-09 10.2786 0.731801 0.0259123 -4.24337e-10 -6.35975e-09 3.95125e-09 2.22167 -0.733487 -0.20892 7.90252e-13 5.84365e-13 -8.98041e-13 -78.1817 30.7459 -0.893008 21.8361 -15.5416 -43.2347 0.930123 -26.2894 3.98112 -4.20095e-09 2.75337e-10 -3.07155e-09 -7.15162e-09 4.21205e-10 -5.40345e-09 -4.20095e-09 2.75341e-10 -3.07154e-09 -7.73091 5.47488 -0.417314 -4.20095e-09 2.75343e-10 -3.07155e-09 -2.90554 0.965183 -0.102902 -4.20096e-09 2.75343e-10 -3.07154e-09 -10.2786 0.731801 -0.0259123 -4.20095e-09 2.75344e-10 -3.07155e-09 -2.22167 -0.733487 0.20892 -2.03217e-16 0.0 -3.88251e-19 -36.9851 -25.1761 -30.8832 -0.87709 57.9967 1.65321 -9.18982 -23.4038 -16.1524 2.03217e-16 0.0 3.88251e-19 72.3218 -54.2347 82.2326 99.6707 88.8927 -99.8767 4.14898 -10.203 10.6628
